<svg version="1.1" xmlns="http://www.w3.org/2000/svg" xmlns:xlink="http://www.w3.org/1999/xlink" width="119.63857" height="98.04538" viewBox="0,0,119.63857,98.04538"><g transform="translate(-176.5588,-134.65729)"><g data-paper-data="{&quot;isPaintingLayer&quot;:true}" fill-rule="nonzero" stroke-linejoin="miter" stroke-miterlimit="10" stroke-dasharray="" stroke-dashoffset="0" style="mix-blend-mode: normal"><path d="M218.77259,189.76788c0,-0.40436 0,-1.09018 0,-1.76203c0,-0.98183 -1.03027,-0.80041 -2.18752,-0.81104c-4.44791,-0.04085 -32.02945,-0.01106 -32.02945,-0.01106l-0.07352,-6.55933c0,0 27.20454,0.03762 32.09928,0.07079c1.48591,0.01007 2.19119,-0.14582 2.19119,-1.15874c0,-0.82546 0,-1.64446 0,-1.89826c0,-0.42826 0.76708,-1.58213 2.86803,-1.58213c7.7032,0 56.37699,0 70.65063,0c1.54561,0 2.90614,1.40861 2.90614,2.68094c0,3.52257 0,8.09485 0,9.75607c0,0.71284 0.00378,3.12063 -2.45172,3.12063c-14.23542,0 -64.54092,0 -71.27375,0c-1.51052,0 -2.69933,-0.72428 -2.69933,-1.84582z" fill="#777777" stroke="#ffffff" stroke-width="2" stroke-linecap="butt"/><path d="M281.45676,191.43507v-15.09025c0,0 8.84652,0 11.34641,0c1.23401,0 2.7647,1.66335 2.7647,2.41915c0,1.42599 0,6.07919 0,9.33061c0,1.91281 -1.5307,3.34048 -2.7647,3.34048c-2.49989,0 -11.34641,0 -11.34641,0z" fill="#234fa0" stroke="#ffffff" stroke-width="1" stroke-linecap="butt"/><path d="M278.81426,175.22758v-35.48193" fill="none" stroke="#ffffff" stroke-width="2" stroke-linecap="round"/><path d="M272.16918,138.98082c0,-0.90082 0,-2.42663 0,-2.86764c0,-0.42879 0.46472,-0.95589 1.0335,-0.95589c1.49346,0 8.33054,0 11.25,0c0.81734,0 1.32761,0.55334 1.32761,1.25c0,0.88021 0,1.98921 0,2.5c0,0.52831 0.08063,1.25 -1.0335,1.25c-3.31204,0 -10.84354,0 -11.98529,0c-0.32546,0 -0.59232,-0.27575 -0.59232,-1.17647z" fill="#234fa0" stroke="#ffffff" stroke-width="1" stroke-linecap="butt"/><path d="M268.2587,192.35174v35.48193" data-paper-data="{&quot;index&quot;:null}" fill="none" stroke="#ffffff" stroke-width="2" stroke-linecap="round"/><path d="M265.46545,214.67202c0.51268,0 3.89457,0 5.38178,0c0.50028,0 0.46408,2.52591 0.46408,4.375c0,1.78777 0.125,8.04426 0.125,11.125c0,2.43831 -1.22914,2 -1.59615,2c-1.31093,0 -2.75599,0 -3.4266,0c-0.2554,0 -1.21408,-0.34484 -1.21408,-1.8456c0,-1.54353 0,-8.38388 0,-11.53675c0,-3.15254 0.11983,-4.11764 0.26597,-4.11764z" data-paper-data="{&quot;index&quot;:null}" fill="#234fa0" stroke="#ffffff" stroke-width="1" stroke-linecap="butt"/><path d="M263.40542,213.19948c0,-2.67774 2.17074,-4.84849 4.84849,-4.84849c2.67774,0 4.84849,2.17074 4.84849,4.84849c0,2.67774 -2.17074,4.84849 -4.84849,4.84849c-2.67774,0 -4.84849,-2.17074 -4.84849,-4.84849z" fill="#234fa0" stroke="#ffffff" stroke-width="1" stroke-linecap="butt"/><path d="M185.43108,186.21837l-0.01994,-4.93273c0,0 29.52947,0.3281 32.99686,0.36663c0.64881,0.00722 1.14001,1.40687 1.13173,2.1609c-0.00922,0.83859 -0.36534,2.65433 -0.82464,2.65093c-2.97102,-0.02194 -33.28401,-0.24574 -33.28401,-0.24574z" fill="#4d4d4d" stroke="#ffffff" stroke-width="0" stroke-linecap="butt"/><text transform="translate(179.17727,147.11928) scale(0.23332,0.23332)" font-size="40" xml:space="preserve" fill="#ffffff" fill-rule="nonzero" stroke="#000000" stroke-width="1" stroke-linecap="butt" stroke-linejoin="miter" stroke-miterlimit="10" stroke-dasharray="" stroke-dashoffset="0" font-family="Serif" font-weight="normal" text-anchor="start" style="mix-blend-mode: normal"><tspan x="0" dy="0">SLAMMD-Gerät</tspan></text><text transform="translate(176.66713,167.54968) scale(0.21666,0.21666)" font-size="40" xml:space="preserve" fill="#ffffff" fill-rule="nonzero" stroke="#000000" stroke-width="1" stroke-linecap="butt" stroke-linejoin="miter" stroke-miterlimit="10" stroke-dasharray="" stroke-dashoffset="0" font-family="Serif" font-weight="normal" text-anchor="start" style="mix-blend-mode: normal"><tspan x="0" dy="0">Seil (22.3N)</tspan></text><path d="M190.45875,174.57075l-2.58005,-5.72204" fill="#ffffff" stroke="#ffffff" stroke-width="1" stroke-linecap="round"/><path d="M191.34873,176.38058l-4.13567,-3.0894l4.51627,-2.09681l-0.30891,5.15293z" fill="#ffffff" stroke="#000000" stroke-width="0" stroke-linecap="butt"/><path d="M183.76168,178.05565h34.84879" fill="none" stroke="#ffffff" stroke-width="0.5" stroke-linecap="round"/></g></g></svg>